<svg id="I24962:9844;23772:15685" width="180" height="32" viewBox="0 0 180 32" fill="none" xmlns="http://www.w3.org/2000/svg">
<mask id="mask0_29593_624" style="mask-type:luminance" maskUnits="userSpaceOnUse" x="0" y="0" width="29" height="32">
<path fill-rule="evenodd" clip-rule="evenodd" d="M0 0H28.3635V32H0V0Z" fill="white"/>
</mask>
<g mask="url(#mask0_29593_624)">
<path fill-rule="evenodd" clip-rule="evenodd" d="M25.6309 22.3007C25.6309 22.5049 25.4942 22.7083 25.3575 22.7755L16.5409 27.7951C16.2675 27.9308 15.9257 27.8623 15.789 27.5917C15.7207 27.5232 15.7207 27.3875 15.7207 27.3197V17.2824C15.7207 17.079 15.8574 16.8748 15.9941 16.807L24.8107 11.7202C25.0841 11.5845 25.4258 11.6524 25.5625 11.9237C25.6309 11.9915 25.6309 12.1271 25.6309 12.1956V22.3007ZM12.6426 27.3885C12.6426 27.7276 12.3692 27.9318 12.0958 27.9318C12.0275 27.9318 11.8908 27.9318 11.8224 27.8633L3.00581 22.845C2.80077 22.7765 2.73242 22.573 2.73242 22.3702V12.1966C2.73242 11.8575 3.00581 11.6533 3.27919 11.6533C3.34754 11.6533 3.48423 11.6533 3.55257 11.7212L12.3692 16.7408C12.5742 16.808 12.6426 17.0114 12.6426 17.2149V27.3885ZM5.05854 8.1265L13.8752 3.03971C14.0802 2.97121 14.2852 2.97121 14.4219 3.03971L23.2386 8.1265C23.512 8.26147 23.5803 8.60059 23.4436 8.87189L23.2386 9.07536L14.4219 14.1622C14.2169 14.2307 14.0119 14.2307 13.8752 14.1622L5.05854 9.07536C4.78516 8.93971 4.71681 8.60059 4.8535 8.3293L5.05854 8.1265ZM28.3636 8.66846C28.3636 8.32934 28.2269 7.99022 28.0219 7.78743H27.9535L27.8852 7.71893L27.8168 7.6511H27.7485L14.7627 0.190472L14.6944 0.122648C14.3527 -0.0808236 13.8742 -0.0123214 13.5325 0.190472L0.546768 7.58328H0.478422L0.410076 7.6511L0.34173 7.71893L0.273384 7.78743C0.068346 7.99022 0 8.26152 0 8.60064V8.66846V23.5226C0 23.9288 0.273384 24.3358 0.615114 24.5399L13.6009 31.9321C13.6009 31.9321 13.6692 31.9321 13.6692 32.0006H13.7375H13.8059H13.8742H13.9426H14.0109H14.2843H14.3527H14.421H14.4894H14.5577H14.626C14.626 32.0006 14.6944 32.0006 14.6944 31.9321L27.6801 24.5399C28.0902 24.3358 28.2952 23.9288 28.2952 23.5226L28.3636 8.66846Z" fill="#9FEF00"/>
</g>
<path fill-rule="evenodd" clip-rule="evenodd" d="M48.9379 22.233V17.4853C48.9379 17.3496 48.8012 17.214 48.6645 17.214H44.4954C44.3587 17.214 44.2221 17.3496 44.2221 17.4853V22.233C44.2221 22.3686 44.0854 22.5043 43.9487 22.5043H41.4199C41.2832 22.5043 41.1465 22.3686 41.1465 22.233V9.95684C41.1465 9.82119 41.2832 9.68555 41.4199 9.68555H43.9487C44.0854 9.68555 44.2221 9.82119 44.2221 9.95684V14.2297C44.2221 14.3654 44.3587 14.501 44.4954 14.501H48.6645C48.8012 14.501 48.9379 14.3654 48.9379 14.2297V9.95684C48.9379 9.82119 49.0746 9.68555 49.2113 9.68555H51.7401C51.8768 9.68555 52.0135 9.82119 52.0135 9.95684V22.233C52.0135 22.3686 51.8768 22.5043 51.7401 22.5043H49.2113C49.0746 22.5043 48.9379 22.3686 48.9379 22.233Z" fill="white"/>
<path fill-rule="evenodd" clip-rule="evenodd" d="M62.7422 16.3329C62.2638 14.773 61.7854 13.213 61.4437 11.6531H61.3753C60.9652 13.213 60.5552 14.773 60.0767 16.3329L59.9401 16.8077C59.8717 16.9434 60.0084 17.1468 60.1451 17.2147H60.2134H62.5372C62.6739 17.2147 62.8106 17.0797 62.8106 16.9434V16.8755L62.7422 16.3329ZM59.052 19.9948L58.3685 22.3008C58.3002 22.4364 58.2318 22.5049 58.0951 22.5049H55.4296C55.2929 22.5049 55.1562 22.3686 55.1562 22.233V22.1658L59.3937 9.88902C59.462 9.75337 59.5304 9.68555 59.6671 9.68555H63.3578C63.4945 9.68555 63.6312 9.75337 63.6312 9.88902L67.8686 22.1658C67.937 22.3008 67.8686 22.5049 67.6636 22.5721H67.5952H64.9297C64.793 22.5721 64.6563 22.5049 64.6563 22.3686L63.9729 20.0626C63.9045 19.927 63.8362 19.8591 63.6995 19.8591H59.462C59.1887 19.792 59.052 19.8591 59.052 19.9948Z" fill="white"/>
<path fill-rule="evenodd" clip-rule="evenodd" d="M81.2653 14.2298H78.5998C78.4632 14.2298 78.3265 14.0942 78.3265 13.9585C78.1898 12.8055 77.1646 11.9238 76.0027 11.9916C74.2941 11.9916 73.2005 13.4837 73.2005 15.9932C73.2005 18.5027 74.2257 19.9948 75.9344 19.9948C77.1646 20.0627 78.1898 19.1809 78.3265 17.9601C78.3265 17.8245 78.4632 17.6888 78.5998 17.6888H81.3337C81.4704 17.6888 81.6071 17.8245 81.6071 17.9601V18.0279C81.197 21.0122 79.0783 22.7078 75.866 22.7078C72.107 22.7078 69.8516 20.1305 69.8516 15.9932C69.8516 11.856 72.1753 9.27866 75.9344 9.27866C79.1466 9.27866 81.2653 11.0421 81.5387 13.8907C81.6071 14.0942 81.4704 14.2298 81.2653 14.2298Z" fill="white"/>
<path fill-rule="evenodd" clip-rule="evenodd" d="M96.0272 22.5051H92.815C92.7459 22.5051 92.6099 22.4366 92.5409 22.3695L88.6459 16.536H88.5775V22.166C88.5775 22.301 88.4401 22.4366 88.3041 22.4366H85.7753C85.6386 22.4366 85.502 22.301 85.502 22.166V9.95771C85.502 9.82206 85.6386 9.68642 85.7753 9.68642H88.3041C88.4401 9.68642 88.5775 9.82206 88.5775 9.95771V15.1802H88.6459L92.3366 9.75424C92.4042 9.68642 92.4732 9.61859 92.6099 9.61859H95.6165C95.7539 9.61859 95.8905 9.75424 95.8905 9.88921C95.8905 9.95771 95.8905 10.0255 95.8215 10.0934L91.5847 15.5193C91.5157 15.6542 91.5157 15.7906 91.5847 15.8584L96.1632 21.9619C96.2323 22.0975 96.2323 22.301 96.0956 22.3695C96.1632 22.5051 96.0956 22.5051 96.0272 22.5051Z" fill="white"/>
<path fill-rule="evenodd" clip-rule="evenodd" d="M104.843 11.3811V22.1651C104.843 22.3008 104.706 22.4364 104.57 22.4364H103.476C103.339 22.4364 103.203 22.3008 103.203 22.1651V11.3811C103.203 11.2455 103.066 11.1098 102.929 11.1098H99.1022C98.9648 11.1098 98.8281 10.9742 98.8281 10.8386V9.95684C98.8281 9.82119 98.9648 9.68555 99.1022 9.68555H109.08C109.217 9.68555 109.354 9.82119 109.354 9.95684V10.8386C109.354 10.9742 109.217 11.1098 109.08 11.1098H105.253C104.979 11.1098 104.843 11.2455 104.843 11.3811Z" fill="white"/>
<path fill-rule="evenodd" clip-rule="evenodd" d="M120.973 22.233V16.8749C120.973 16.7392 120.836 16.6036 120.7 16.6036H114.685C114.548 16.6036 114.411 16.7392 114.411 16.8749V22.233C114.411 22.3686 114.274 22.5043 114.138 22.5043H113.044C112.907 22.5043 112.771 22.3686 112.771 22.233V9.95684C112.771 9.82119 112.907 9.68555 113.044 9.68555H114.138C114.274 9.68555 114.411 9.82119 114.411 9.95684V14.8402C114.411 14.9758 114.548 15.1115 114.685 15.1115H120.7C120.836 15.1115 120.973 14.9758 120.973 14.8402V9.95684C120.973 9.82119 121.109 9.68555 121.246 9.68555H122.34C122.476 9.68555 122.613 9.82119 122.613 9.95684V22.233C122.613 22.3686 122.476 22.5043 122.34 22.5043H121.246C121.109 22.5043 120.973 22.3686 120.973 22.233Z" fill="white"/>
<path fill-rule="evenodd" clip-rule="evenodd" d="M129.584 11.3811V14.8402C129.584 14.9758 129.72 15.1115 129.857 15.1115H135.53C135.666 15.1115 135.803 15.2471 135.803 15.3828V16.2645C135.803 16.4001 135.666 16.5358 135.53 16.5358H129.857C129.72 16.5358 129.584 16.6714 129.584 16.8071V20.6052C129.584 20.7408 129.72 20.8765 129.857 20.8765H136.145C136.282 20.8765 136.418 21.0121 136.418 21.1478V22.0295C136.418 22.1651 136.282 22.3008 136.145 22.3008H128.217C128.08 22.3008 127.943 22.1651 127.943 22.0295V9.95684C127.943 9.82119 128.08 9.68555 128.217 9.68555H136.008C136.145 9.68555 136.282 9.82119 136.282 9.95684V10.8386C136.282 10.9742 136.145 11.1098 136.008 11.1098H129.925C129.72 11.1098 129.584 11.2455 129.584 11.3811Z" fill="white"/>
<path fill-rule="evenodd" clip-rule="evenodd" d="M143.732 19.792C143.732 19.9269 143.869 20.0626 144.005 20.0626H145.441C146.945 20.0626 147.491 19.5878 147.491 18.639C147.491 17.6216 146.876 17.1468 145.372 17.1468H144.005C143.869 17.1468 143.732 17.2825 143.732 17.4181V19.792ZM143.732 14.5695C143.732 14.7052 143.869 14.8408 144.005 14.8408H145.372C146.808 14.8408 147.355 14.3661 147.355 13.4165C147.355 12.467 146.739 12.0601 145.441 12.0601H144.005C143.869 12.0601 143.732 12.1957 143.732 12.3314V14.5695ZM145.713 9.61835C148.926 9.61835 150.43 10.9748 150.43 12.941C150.497 14.2975 149.61 15.5869 148.243 15.926V15.9931C149.951 16.4007 150.771 17.3496 150.771 18.978C150.771 21.1484 148.994 22.5727 146.055 22.5727H140.998C140.861 22.5727 140.725 22.4364 140.725 22.3007V9.95747C140.725 9.82182 140.861 9.68617 140.998 9.68617L145.713 9.61835Z" fill="white"/>
<path fill-rule="evenodd" clip-rule="evenodd" d="M157.061 16.0621C157.061 18.5716 158.154 20.0637 160.067 20.0637C161.913 20.0637 163.007 18.5716 163.007 16.0621C163.007 13.5526 161.913 12.0605 160.067 12.0605C158.154 12.0605 157.061 13.5526 157.061 16.0621ZM166.355 16.0614C166.355 20.1987 163.963 22.776 160.066 22.776C156.171 22.776 153.779 20.1987 153.779 16.0614C153.779 11.9241 156.171 9.34683 160.066 9.34683C163.963 9.34683 166.355 11.9241 166.355 16.0614Z" fill="white"/>
<path fill-rule="evenodd" clip-rule="evenodd" d="M179.614 22.5049H176.606C176.469 22.5049 176.401 22.4364 176.333 22.3692L174.077 18.0963H174.009L171.754 22.3692C171.685 22.4364 171.617 22.5049 171.481 22.5049H168.542C168.405 22.5049 168.268 22.3692 168.268 22.2336C168.268 22.1658 168.268 22.0973 168.337 22.0973L171.959 16.1294C172.027 16.0616 172.027 15.926 171.959 15.7903L168.542 10.0931C168.473 9.95747 168.473 9.754 168.678 9.68617C168.747 9.68617 168.747 9.61835 168.815 9.61835H171.754C171.891 9.61835 171.959 9.68617 172.027 9.754L174.146 13.8913H174.214L176.333 9.754C176.401 9.68617 176.469 9.61835 176.606 9.61835H179.477C179.614 9.61835 179.75 9.75399 179.75 9.88896C179.75 9.95747 179.75 10.0253 179.682 10.0253L176.265 15.7225C176.196 15.7903 176.196 15.926 176.265 16.0616L179.955 22.0301C180.024 22.1658 180.024 22.3692 179.886 22.4364C179.682 22.5049 179.614 22.5049 179.614 22.5049Z" fill="white"/>
</svg>